<svg width="10" height="14" viewBox="0 0 10 14" fill="none" xmlns="http://www.w3.org/2000/svg">
<path fill-rule="evenodd" clip-rule="evenodd" d="M7.99827 6.96154e-06C7.55892 -0.00115389 7.13149 0.142896 6.78247 0.409755C6.43345 0.676614 6.18239 1.05132 6.06833 1.47562C5.95427 1.89991 5.98361 2.34999 6.15179 2.75588C6.31997 3.16178 6.61755 3.50072 6.99827 3.72001V5.00001L4.99827 7.00001L2.99827 5.00001V3.72001C3.37898 3.50072 3.67657 3.16178 3.84474 2.75588C4.01292 2.34999 4.04226 1.89991 3.9282 1.47562C3.81415 1.05132 3.56309 0.676614 3.21406 0.409755C2.86504 0.142896 2.43762 -0.00115389 1.99827 6.96154e-06C1.55892 -0.00115389 1.13149 0.142896 0.78247 0.409755C0.433447 0.676614 0.182385 1.05132 0.0683288 1.47562C-0.0457276 1.89991 -0.0163862 2.34999 0.15179 2.75588C0.319966 3.16178 0.617551 3.50072 0.998267 3.72001V5.50001L3.99827 8.50001V10.28C3.61755 10.4993 3.31997 10.8382 3.15179 11.2441C2.98361 11.65 2.95427 12.1001 3.06833 12.5244C3.18239 12.9487 3.43345 13.3234 3.78247 13.5903C4.13149 13.8571 4.55892 14.0012 4.99827 14C5.43762 14.0012 5.86504 13.8571 6.21406 13.5903C6.56309 13.3234 6.81415 12.9487 6.9282 12.5244C7.04226 12.1001 7.01292 11.65 6.84474 11.2441C6.67657 10.8382 6.37898 10.4993 5.99827 10.28V8.50001L8.99827 5.50001V3.72001C9.37898 3.50072 9.67657 3.16178 9.84474 2.75588C10.0129 2.34999 10.0423 1.89991 9.9282 1.47562C9.81415 1.05132 9.56309 0.676614 9.21406 0.409755C8.86504 0.142896 8.43762 -0.00115389 7.99827 6.96154e-06ZM1.99827 3.20001C1.33827 3.20001 0.798267 2.65001 0.798267 2.00001C0.798267 1.35001 1.34827 0.800007 1.99827 0.800007C2.64827 0.800007 3.19827 1.35001 3.19827 2.00001C3.19827 2.65001 2.64827 3.20001 1.99827 3.20001ZM4.99827 13.2C4.33827 13.2 3.79827 12.65 3.79827 12C3.79827 11.35 4.34827 10.8 4.99827 10.8C5.64827 10.8 6.19827 11.35 6.19827 12C6.19827 12.65 5.64827 13.2 4.99827 13.2ZM7.99827 3.20001C7.33827 3.20001 6.79827 2.65001 6.79827 2.00001C6.79827 1.35001 7.34827 0.800007 7.99827 0.800007C8.64827 0.800007 9.19827 1.35001 9.19827 2.00001C9.19827 2.65001 8.64827 3.20001 7.99827 3.20001Z" fill="#2F2F2F"/>
</svg>
