<svg width="121" height="118" viewBox="0 0 121 118" fill="none" xmlns="http://www.w3.org/2000/svg">
<path d="M112.884 30.1215C107.474 20.8551 100.136 13.5189 90.8671 8.11125C81.597 2.70329 71.4769 -6.31297e-08 60.4994 -6.31297e-08C49.5234 -6.31297e-08 39.3999 2.70412 30.1318 8.11125C20.8622 13.5187 13.5241 20.8551 8.11401 30.1215C2.70476 39.3876 0 49.5063 0 60.4772C0 73.6558 3.84621 85.5063 11.5406 96.0318C19.2341 106.558 29.173 113.842 41.3564 117.884C42.7746 118.147 43.8244 117.962 44.5071 117.333C45.1899 116.704 45.531 115.916 45.531 114.972C45.531 114.814 45.5174 113.398 45.4912 110.72C45.4642 108.042 45.4515 105.706 45.4515 103.712L43.6396 104.026C42.4843 104.237 41.027 104.327 39.2675 104.301C37.5088 104.277 35.6831 104.093 33.7928 103.75C31.9017 103.41 30.1428 102.623 28.5147 101.389C26.8873 100.156 25.7321 98.5406 25.0492 96.547L24.2615 94.7349C23.7364 93.5285 22.9098 92.1883 21.7805 90.7193C20.6512 89.2489 19.5092 88.2521 18.3539 87.7272L17.8024 87.3325C17.4349 87.0702 17.0938 86.7538 16.7785 86.3867C16.4634 86.0196 16.2275 85.6522 16.0699 85.2843C15.9121 84.9161 16.0429 84.614 16.4637 84.3771C16.8844 84.1402 17.6448 84.0252 18.7482 84.0252L20.3231 84.2604C21.3735 84.4709 22.6728 85.0995 24.2226 86.1501C25.7715 87.1998 27.0449 88.5646 28.0428 90.2438C29.2513 92.3968 30.7073 94.0374 32.4149 95.1663C34.1212 96.2952 35.8415 96.8587 37.5742 96.8587C39.3069 96.8587 40.8035 96.7274 42.0644 96.4662C43.3239 96.2036 44.5057 95.8089 45.609 95.2843C46.0817 91.7654 47.3685 89.0622 49.4685 87.1725C46.4754 86.8581 43.7844 86.3845 41.3942 85.7548C39.0054 85.1243 36.5368 84.101 33.9901 82.6822C31.4421 81.2653 29.3283 79.5059 27.6483 77.4069C25.968 75.3068 24.589 72.5498 23.5132 69.1382C22.4369 65.7252 21.8986 61.7882 21.8986 57.326C21.8986 50.9725 23.9734 45.5659 28.1223 41.1032C26.1788 36.3266 26.3623 30.9719 28.6733 25.0396C30.1963 24.5666 32.4549 24.9215 35.448 26.1023C38.4417 27.2836 40.6335 28.2956 42.0258 29.1346C43.418 29.9734 44.5335 30.6842 45.374 31.2607C50.259 29.8962 55.3002 29.2138 60.4989 29.2138C65.6976 29.2138 70.7399 29.8962 75.6252 31.2607L78.6186 29.3716C80.6656 28.1111 83.0828 26.956 85.8646 25.9059C88.648 24.8564 90.7764 24.5674 92.2475 25.0404C94.6099 30.973 94.8204 36.3274 92.8763 41.104C97.0249 45.5668 99.1006 50.9747 99.1006 57.3268C99.1006 61.789 98.5604 65.7384 97.4857 69.1776C96.4096 72.6173 95.0188 75.3717 93.3125 77.4464C91.6044 79.5208 89.4771 81.2664 86.9304 82.683C84.3832 84.1007 81.9138 85.124 79.5249 85.7545C77.135 86.3851 74.444 86.8589 71.4509 87.1739C74.1808 89.5355 75.546 93.2631 75.546 98.3553V114.97C75.546 115.914 75.8744 116.702 76.5316 117.331C77.188 117.96 78.2246 118.145 79.6428 117.882C91.8279 113.84 101.767 106.556 109.46 96.0296C117.152 85.5041 121 73.6536 121 60.475C120.997 49.5055 118.291 39.3876 112.884 30.1215Z" fill="white"/>
</svg>
